<?xml version="1.0" encoding="UTF-8" standalone="no"?>
<!-- Created with Inkscape (http://www.inkscape.org/) -->

<svg
   width="189.35056mm"
   height="119.10411mm"
   viewBox="0 0 189.35056 119.10411"
   version="1.1"
   id="svg1"
   xml:space="preserve"
   xmlns:xlink="http://www.w3.org/1999/xlink"
   xmlns="http://www.w3.org/2000/svg"
   xmlns:svg="http://www.w3.org/2000/svg"><defs
     id="defs1"><linearGradient
       id="linearGradient6"><stop
         style="stop-color:#33bbff;stop-opacity:1;"
         offset="0"
         id="stop7" /><stop
         style="stop-color:#00d6ff;stop-opacity:0;"
         offset="1"
         id="stop8" /></linearGradient><linearGradient
       xlink:href="#linearGradient6"
       id="linearGradient8"
       x1="8.5838156"
       y1="100.05779"
       x2="198.58382"
       y2="100.05779"
       gradientUnits="userSpaceOnUse"
       gradientTransform="matrix(0.62665426,0,0,1.5765387,86.054607,-265.4349)" /></defs><g
     id="layer1"
     transform="translate(-12.809673,-91.436384)"><g
       id="g9"><rect
         style="opacity:1;mix-blend-mode:normal;fill:url(#linearGradient8);fill-opacity:1;fill-rule:nonzero;stroke-width:2.98186;stroke-linecap:round;stroke-miterlimit:0;stroke-dasharray:2.98186, 8.94555"
         id="rect1"
         width="119.06432"
         height="189.18466"
         x="91.433701"
         y="-202.28226"
         transform="matrix(-0.00133467,0.99999911,-0.99999998,-2.1087098e-4,0,0)" /><g
         id="g8"
         transform="translate(-0.01264515,-0.26914288)"><path
           id="path0-1"
           d="m 176.30571,176.15727 c -3.83742,0.12819 -6.71595,0.39832 -8.04239,0.75405 -0.38792,0.10406 -0.9499,0.18923 -1.24933,0.18923 -0.29947,0 -0.64763,0.0781 -0.77393,0.1736 -0.1264,0.0954 -0.38317,0.17557 -0.57051,0.17736 -0.18731,0.002 -0.95934,0.1391 -1.71576,0.30465 -0.75641,0.16502 -1.64151,0.35669 -1.96697,0.42527 -0.32545,0.069 -1.17743,0.29993 -1.89315,0.51375 -0.71621,0.21381 -1.70113,0.47825 -2.18931,0.58706 -0.91299,0.20435 -3.91877,1.16749 -4.29296,1.37564 -0.11551,0.0643 -0.64809,0.25497 -1.18311,0.42338 -0.5355,0.16878 -1.16845,0.40541 -1.4064,0.52651 -0.23793,0.12104 -0.66416,0.25308 -0.94658,0.29424 -0.28289,0.0408 -0.65801,0.17504 -0.83446,0.29897 -0.17646,0.12355 -0.37609,0.22469 -0.44372,0.22469 -0.0676,0 -0.77251,0.26633 -1.56677,0.5918 -0.79378,0.32546 -1.50526,0.59179 -1.58094,0.59179 -0.0756,0 -0.32169,0.12497 -0.54686,0.27768 -0.22566,0.15287 -0.79425,0.39452 -1.264,0.53739 -0.46975,0.14286 -1.18926,0.44373 -1.59892,0.66891 -0.40967,0.22517 -0.82642,0.40918 -0.92624,0.40918 -0.0998,0 -0.30844,0.098 -0.4636,0.21809 -0.15519,0.11961 -0.54448,0.28241 -0.86522,0.36188 -0.32072,0.0796 -0.72047,0.24031 -0.88743,0.35763 -0.16754,0.11729 -0.99674,0.52036 -1.84303,0.89548 -0.84584,0.37515 -2.39792,1.10128 -3.44905,1.6136 -1.05066,0.51231 -1.97074,0.93192 -2.04455,0.93192 -0.17927,0 -1.88416,0.80704 -2.25835,1.06911 -0.16324,0.11442 -0.53597,0.27153 -0.82831,0.34911 -0.29236,0.0776 -0.63817,0.23699 -0.76826,0.35385 -0.13016,0.11693 -0.36661,0.25213 -0.52602,0.30038 -0.15895,0.0482 -0.89786,0.37418 -1.64197,0.72378 -0.74366,0.34959 -1.40545,0.6353 -1.47027,0.6353 -0.0643,0 -0.29944,0.15984 -0.52176,0.35528 -0.22471,0.19726 -0.5393,0.35478 -0.70817,0.35478 -0.16699,0 -0.5511,0.12908 -0.85388,0.28667 -1.02604,0.53455 -2.11643,1.01518 -2.30282,1.01518 -0.1021,0 -0.2195,0.0554 -0.26159,0.12247 -0.0988,0.16038 -1.12872,0.66654 -1.94,0.95322 -0.35291,0.12497 -0.88557,0.37986 -1.18359,0.56719 -0.29802,0.18686 -0.70153,0.37749 -0.89691,0.4229 -0.19537,0.0454 -0.4352,0.14894 -0.53266,0.2304 -0.0975,0.0813 -0.6301,0.32072 -1.1831,0.53217 -0.55347,0.21193 -1.22805,0.49009 -1.49959,0.61828 -0.27107,0.12873 -0.68166,0.26397 -0.91157,0.30134 -0.23037,0.0374 -0.50949,0.16788 -0.62018,0.28998 -0.11032,0.12212 -0.28572,0.22282 -0.38932,0.22376 -0.10406,4.7e-4 -0.61498,0.19111 -1.13533,0.42292 -0.52084,0.23227 -1.30043,0.54591 -1.73185,0.69727 -0.43191,0.1509 -0.91111,0.35244 -1.06531,0.44703 -0.15377,0.0951 -0.59937,0.26351 -0.99012,0.37467 -0.39027,0.11174 -1.1358,0.38081 -1.65664,0.5989 -0.52035,0.21758 -1.58567,0.59225 -2.3667,0.83161 -0.78101,0.23937 -1.669402,0.53693 -1.974522,0.66087 -0.30464,0.12391 -0.6793,0.22517 -0.83164,0.22517 -0.15233,0 -0.39452,0.0822 -0.537858,0.18261 -0.143383,0.10087 -0.701059,0.28808 -1.239403,0.41722 -1.999111,0.47873 -2.870008,0.72898 -3.10133,0.89076 -0.130518,0.0914 -0.413458,0.1661 -0.628705,0.1661 -0.215231,0 -0.935691,0.12909 -1.600817,0.28667 -0.665106,0.15752 -1.502411,0.34248 -1.860049,0.41108 -0.358103,0.0686 -1.18357,0.23086 -1.834498,0.36 -0.650929,0.12963 -1.92865,0.31695 -2.840222,0.41677 -0.911109,0.0994 -1.975942,0.23604 -2.366691,0.30275 -2.203491,0.37845 -9.793169,0.3458 -12.543512,-0.054 -0.650929,-0.0946 -1.529854,-0.2053 -1.95277,-0.246 -0.662747,-0.0635 -2.924434,-0.41533 -4.91078,-0.76444 -0.325456,-0.0573 -1.059648,-0.2143 -1.632033,-0.34913 -0.571921,-0.1348 -1.18407,-0.24693 -1.36052,-0.24929 -0.176468,-0.002 -0.454114,-0.0805 -0.616851,-0.17361 -0.162702,-0.0928 -0.475427,-0.17075 -0.695395,-0.17307 -0.219504,-0.002 -0.885558,-0.15662 -1.479238,-0.34344 -1.295224,-0.40682 -1.891745,-0.56625 -2.924424,-0.78102 -0.428587,-0.0894 -1.106003,-0.29991 -1.50526,-0.46785 -0.398785,-0.16788 -0.820277,-0.30463 -0.936174,-0.30369 -0.224703,0.002 -1.240824,-0.29329 -2.873335,-0.83448 -0.553001,-0.18353 -1.245551,-0.37041 -1.538374,-0.41487 -0.29282,-0.0449 -0.639096,-0.13767 -0.769185,-0.20671 -0.451295,-0.23889 -3.168047,-1.14196 -4.362036,-1.44944 -0.659911,-0.16985 -1.519453,-0.43617 -1.909722,-0.5918 -1.251701,-0.4986 -2.468871,-0.89407 -3.076747,-1.00004 -0.325461,-0.0566 -0.964557,-0.26113 -1.420109,-0.4546 -0.455552,-0.19301 -1.068157,-0.3898 -1.360978,-0.43709 -0.29282,-0.0474 -0.637678,-0.15895 -0.765876,-0.24836 -0.128194,-0.0894 -0.379862,-0.1627 -0.559149,-0.1627 -0.178816,0 -0.714313,-0.1543 -1.189261,-0.34297 -0.475419,-0.18875 -1.182162,-0.38175 -1.571013,-0.42858 -0.38885,-0.0468 -0.787163,-0.15322 -0.884613,-0.23605 -0.09792,-0.0834 -0.476364,-0.21193 -0.841091,-0.28668 -0.364725,-0.0743 -0.942796,-0.24173 -1.284343,-0.37135 -0.342017,-0.13016 -1.001928,-0.31883 -1.466942,-0.42007 -0.465012,-0.10118 -1.178379,-0.2597 -1.584733,-0.35289 -1.81984,-0.41581 -2.361488,-0.51989 -2.707764,-0.51989 -0.203412,0 -0.432372,-0.0748 -0.50806,-0.16646 -0.07616,-0.0914 -0.468797,-0.20435 -0.872785,-0.25069 -0.403516,-0.0463 -1.053492,-0.17883 -1.444236,-0.29473 -0.390271,-0.11585 -1.21575,-0.26964 -1.834033,-0.34201 -0.618282,-0.0719 -1.571959,-0.18355 -2.119283,-0.24836 -0.547325,-0.0647 -1.306105,-0.11783 -1.68644,-0.11783 h -0.691133 v 8.7572 8.75671 h 94.610913 94.61092 v -15.08808 -15.08807 h -0.68641 c -0.3775,0 -0.73704,-0.0477 -0.79852,-0.10603 -0.16323,-0.1543 -1.47073,-0.6476 -2.83454,-1.06911 -0.65092,-0.20104 -1.31652,-0.43992 -1.47925,-0.53075 -0.1627,-0.0903 -0.56198,-0.20342 -0.88743,-0.25073 -0.32548,-0.0474 -0.95463,-0.21617 -1.39836,-0.37465 -0.44372,-0.15895 -1.05633,-0.33586 -1.36098,-0.39358 -0.30465,-0.0573 -0.98018,-0.18355 -1.50054,-0.28053 -0.52082,-0.0969 -1.14383,-0.23416 -1.38415,-0.30513 -0.24078,-0.071 -0.77344,-0.17789 -1.18359,-0.23841 -0.41013,-0.0601 -1.41158,-0.21052 -2.22524,-0.33491 -3.48404,-0.53077 -5.64402,-0.63674 -9.99943,-0.49104"
           stroke="none"
           fill="#7cc328"
           fill-rule="evenodd"
           style="stroke-width:0.473054" /><path
           id="path2"
           d="m 187.37047,167.47672 c -2.10226,0.15323 -3.25463,0.28715 -3.3587,0.39073 -0.0662,0.0667 -0.48582,0.12105 -0.93192,0.12105 -0.44656,0 -1.03503,0.0487 -1.30799,0.10871 -0.27248,0.0595 -1.02842,0.1736 -1.67934,0.25307 -0.65094,0.0799 -1.31651,0.19821 -1.47924,0.26349 -0.31553,0.12676 -1.00289,0.25641 -2.24844,0.42481 -0.79804,0.10782 -2.22193,0.44847 -3.55026,0.84961 -0.42292,0.12765 -1.54123,0.42386 -2.48497,0.65803 -0.94373,0.23415 -1.76922,0.46689 -1.83403,0.51656 -0.0652,0.0503 -0.27814,0.12105 -0.47353,0.15751 -0.77533,0.14608 -1.32313,0.29899 -1.77489,0.49576 -0.26066,0.11354 -0.87279,0.33019 -1.36099,0.48109 -1.35058,0.41726 -2.64957,0.88982 -2.77494,1.0095 -0.0621,0.0587 -0.21807,0.10692 -0.34675,0.10692 -0.26253,0 -0.9617,0.20482 -1.30656,0.38317 -0.12497,0.0644 -0.68404,0.27437 -1.24224,0.46643 -0.55868,0.1916 -1.33496,0.49814 -1.72571,0.68025 -0.39027,0.18261 -0.89644,0.39737 -1.12398,0.47779 -0.60598,0.21382 -0.96409,0.36 -1.3411,0.54732 -0.18403,0.0918 -0.39785,0.16699 -0.47449,0.16699 -0.123,0 -1.38889,0.52935 -3.03652,1.27016 -0.29283,0.13141 -0.80184,0.34959 -1.13155,0.48441 -0.32973,0.13426 -1.00857,0.43378 -1.50952,0.66512 -0.50049,0.23083 -0.93334,0.42007 -0.96172,0.42007 -0.0279,0 -0.56057,0.23983 -1.1836,0.53265 -0.62253,0.29282 -1.18499,0.53266 -1.24932,0.53266 -0.0647,0 -0.37041,0.13249 -0.67978,0.2947 -0.67788,0.3548 -2.71297,1.30328 -3.93486,1.83309 -0.4882,0.21194 -1.68644,0.77202 -2.66237,1.24461 -1.6448,0.79617 -2.92252,1.40735 -5.32517,2.54645 -0.52084,0.24695 -1.63061,0.77346 -2.46697,1.17034 -0.83589,0.39642 -1.54121,0.72094 -1.5677,0.72094 -0.0259,0 -0.38035,0.15377 -0.78764,0.34156 -0.40682,0.18779 -1.29902,0.59367 -1.98211,0.90211 -0.68356,0.30843 -1.82835,0.84061 -2.54455,1.18263 -0.71574,0.34248 -1.60744,0.76068 -1.98163,0.93049 -0.37419,0.16932 -1.06626,0.48678 -1.53839,0.70533 -0.47209,0.21808 -1.55065,0.67931 -2.39695,1.02512 -0.84582,0.34531 -1.80423,0.74836 -2.12969,0.89547 -1.57764,0.71385 -3.58907,1.56061 -5.08866,2.14201 -2.14482,0.83209 -3.13823,1.22567 -3.432,1.35955 -0.13016,0.0595 -0.50286,0.18212 -0.82831,0.27295 -0.52274,0.14518 -3.2584,1.09419 -3.72768,1.29239 -0.17449,0.0742 -0.67694,0.2247 -2.780612,0.83446 -0.58612,0.16986 -1.2517,0.38317 -1.479235,0.474 -0.228018,0.0908 -0.680737,0.22897 -1.006193,0.30748 -0.325456,0.0781 -1.203933,0.31934 -1.952304,0.53551 -0.748371,0.2162 -2.026557,0.53219 -2.840205,0.70201 -0.813666,0.16985 -1.904998,0.40872 -2.425837,0.53124 -0.520823,0.12248 -1.132971,0.25308 -1.360968,0.28999 -1.092295,0.17701 -1.880876,0.31269 -2.366691,0.40824 -0.964565,0.19018 -2.171324,0.36378 -3.372879,0.48536 -0.650465,0.0658 -1.699224,0.17307 -2.330272,0.23888 -3.599947,0.37467 -11.4957,0.20106 -15.420154,-0.3387 -1.683615,-0.2318 -2.737578,-0.38837 -3.343076,-0.4967 -0.341546,-0.0609 -0.900701,-0.15984 -1.242731,-0.21996 -1.118757,-0.19586 -3.08667,-0.59132 -4.111781,-0.82597 -0.553472,-0.12676 -1.503839,-0.34012 -2.111715,-0.47446 -0.607874,-0.13428 -1.326918,-0.30229 -1.597506,-0.37325 -0.270586,-0.0714 -0.678359,-0.1779 -0.906371,-0.23748 -2.212004,-0.57617 -5.129805,-1.40639 -7.221178,-2.054 -0.749791,-0.23227 -1.429571,-0.42243 -1.510463,-0.42243 -0.08042,0 -0.239367,-0.0482 -0.351952,-0.10745 -0.113069,-0.0592 -0.552055,-0.19821 -0.974967,-0.30892 -0.79142,-0.20813 -1.302319,-0.36567 -1.715768,-0.5303 -0.130089,-0.0515 -1.434775,-0.47636 -2.899353,-0.94373 -1.464576,-0.46785 -3.115063,-1.00005 -3.668536,-1.18264 -1.779632,-0.58848 -7.496023,-2.39745 -9.348504,-2.95848 -0.683564,-0.2072 -1.653799,-0.5057 -2.15571,-0.66418 -0.502384,-0.15805 -1.194462,-0.36566 -1.538373,-0.46075 -0.343911,-0.0954 -1.211021,-0.3387 -1.927225,-0.54021 -1.335434,-0.37561 -5.372953,-1.40641 -5.531899,-1.41209 -0.04921,-0.002 -0.08893,0.92861 -0.08893,2.06725 v 2.07104 h 0.691132 c 0.380335,0 1.139116,0.0529 1.68644,0.11783 0.547324,0.0647 1.501002,0.17646 2.119284,0.24836 0.618283,0.0724 1.443762,0.22611 1.834033,0.342 0.390743,0.11586 1.040719,0.24837 1.444235,0.29473 0.40399,0.0463 0.796624,0.15948 0.872786,0.25071 0.07568,0.0917 0.304647,0.16645 0.508059,0.16645 0.346277,0 0.887924,0.10405 2.707764,0.51989 0.406354,0.0932 1.119722,0.25165 1.584733,0.35288 0.465014,0.10118 1.124925,0.28998 1.466942,0.42007 0.341548,0.12963 0.919619,0.29708 1.284344,0.37136 0.364726,0.0748 0.74317,0.2034 0.841091,0.28667 0.09744,0.0828 0.495762,0.18921 0.884612,0.23606 0.388852,0.0468 1.095595,0.23984 1.571014,0.42859 0.474948,0.18875 1.010444,0.34295 1.18926,0.34295 0.179288,0 0.430952,0.0733 0.55915,0.1627 0.128194,0.0894 0.473055,0.20105 0.765876,0.24836 0.29282,0.0472 0.905426,0.24409 1.360978,0.43709 0.455552,0.19348 1.094648,0.39783 1.420109,0.45461 0.607875,0.10602 1.825045,0.50143 3.076747,1.00003 0.390269,0.15574 1.24981,0.42197 1.909721,0.5918 1.193989,0.3075 3.910742,1.21055 4.362037,1.44944 0.130089,0.069 0.476364,0.1618 0.769185,0.20672 0.292822,0.0445 0.985372,0.23133 1.538374,0.41487 1.63251,0.54118 2.648632,0.83637 2.873335,0.83447 0.115893,-9.4e-4 0.537389,0.13571 0.936173,0.3037 0.399258,0.16788 1.076673,0.37845 1.50526,0.46785 1.032679,0.21476 1.6292,0.37419 2.924421,0.78101 0.59368,0.18686 1.259753,0.34108 1.479238,0.34345 0.219968,0.002 0.532658,0.0805 0.695395,0.17307 0.162701,0.0932 0.440419,0.17128 0.616868,0.1736 0.176468,0.002 0.788582,0.11444 1.360503,0.2493 0.572385,0.13481 1.306577,0.29187 1.632033,0.34912 1.986365,0.34911 4.248033,0.70106 4.91078,0.76444 0.422916,0.0408 1.301841,0.15145 1.95277,0.24601 2.750343,0.39972 10.340021,0.43237 12.543511,0.054 0.39075,-0.0667 1.455602,-0.20341 2.366692,-0.30274 0.911572,-0.0998 2.189293,-0.28717 2.840222,-0.41678 0.650928,-0.12908 1.476412,-0.2914 1.834516,-0.35999 0.35762,-0.0686 1.194925,-0.25356 1.860049,-0.41108 0.665108,-0.15752 1.385568,-0.28668 1.600817,-0.28668 0.215229,0 0.498115,-0.0748 0.628687,-0.16609 0.231322,-0.16181 1.102219,-0.41203 3.101349,-0.89077 0.538325,-0.12908 1.096074,-0.31647 1.239385,-0.41722 0.143396,-0.10026 0.385546,-0.18261 0.537856,-0.18261 0.15234,0 0.527,-0.10118 0.83164,-0.22516 0.30512,-0.12391 1.193512,-0.42151 1.974522,-0.66087 0.78103,-0.23937 1.84635,-0.61403 2.3667,-0.83162 0.52084,-0.21809 1.26637,-0.48724 1.65664,-0.5989 0.39075,-0.11121 0.83637,-0.27958 0.99012,-0.37466 0.15411,-0.0946 0.6334,-0.29613 1.06531,-0.44704 0.43142,-0.15143 1.21101,-0.465 1.73185,-0.69727 0.52035,-0.2318 1.03125,-0.42245 1.13533,-0.42291 0.10353,-9.5e-4 0.2791,-0.10169 0.38932,-0.22376 0.11067,-0.12212 0.38981,-0.25262 0.62018,-0.28998 0.22991,-0.0374 0.6405,-0.17272 0.91157,-0.30134 0.27154,-0.1282 0.94612,-0.40636 1.49959,-0.61829 0.553,-0.21145 1.08565,-0.45081 1.1831,-0.53217 0.0974,-0.0813 0.33729,-0.18498 0.53266,-0.23038 0.19538,-0.0455 0.59889,-0.23605 0.89691,-0.4229 0.29802,-0.18735 0.83068,-0.44232 1.18359,-0.5672 0.81128,-0.28668 1.84112,-0.79285 1.94,-0.95322 0.042,-0.0672 0.15948,-0.12247 0.26159,-0.12247 0.18639,0 1.27678,-0.48063 2.30282,-1.01519 0.30278,-0.15751 0.68689,-0.28667 0.85388,-0.28667 0.16878,0 0.48346,-0.15752 0.70817,-0.35478 0.22232,-0.19538 0.45744,-0.35528 0.52176,-0.35528 0.0647,0 0.72661,-0.28571 1.47027,-0.6353 0.74411,-0.34959 1.48302,-0.67553 1.64197,-0.72376 0.15948,-0.0482 0.39593,-0.18355 0.52602,-0.3004 0.13017,-0.11693 0.4759,-0.27627 0.76826,-0.35384 0.29234,-0.0776 0.6651,-0.23465 0.82831,-0.34912 0.37419,-0.26207 2.07908,-1.06911 2.25835,-1.06911 0.0738,0 0.99389,-0.4196 2.04455,-0.93191 1.05113,-0.51233 2.60321,-1.23846 3.44905,-1.6136 0.84629,-0.37513 1.67555,-0.77818 1.84303,-0.89548 0.16698,-0.11729 0.56671,-0.27816 0.88743,-0.35764 0.32074,-0.0794 0.71005,-0.24219 0.86522,-0.36187 0.1552,-0.12015 0.36378,-0.21809 0.4636,-0.21809 0.0997,0 0.51657,-0.18402 0.92624,-0.40919 0.40966,-0.22517 1.12917,-0.52604 1.59892,-0.66889 0.46975,-0.14286 1.03834,-0.38461 1.264,-0.53741 0.22517,-0.15286 0.47117,-0.27768 0.54686,-0.27768 0.0756,0 0.78716,-0.26632 1.58094,-0.59178 0.79426,-0.32547 1.49911,-0.5918 1.56677,-0.5918 0.0676,0 0.26727,-0.10118 0.44372,-0.22469 0.17647,-0.1239 0.55157,-0.2583 0.83446,-0.29898 0.28242,-0.0412 0.70865,-0.17307 0.94658,-0.29424 0.23795,-0.12104 0.8709,-0.35763 1.4064,-0.5265 0.53502,-0.16843 1.06767,-0.35905 1.18311,-0.42338 0.37419,-0.20815 3.37997,-1.17129 4.29296,-1.37565 0.48818,-0.10888 1.4731,-0.37324 2.18931,-0.58706 0.71572,-0.21382 1.5677,-0.44468 1.89315,-0.51375 0.32546,-0.0686 1.21056,-0.26018 1.96697,-0.42527 0.75642,-0.16557 1.52845,-0.30228 1.71576,-0.30465 0.18734,-0.002 0.4442,-0.0819 0.57051,-0.17736 0.12623,-0.0954 0.4759,-0.1736 0.77628,-0.1736 0.30086,0 0.94327,-0.0994 1.42722,-0.2214 1.78434,-0.44799 5.67521,-0.72803 10.42564,-0.74932 3.50438,-0.0161 4.28824,0.0393 7.43594,0.51848 0.81366,0.12444 1.81511,0.27483 2.22524,0.33492 0.41015,0.0606 0.94281,0.16752 1.18359,0.23842 0.24032,0.071 0.86333,0.20814 1.38415,0.30512 0.52036,0.0969 1.19589,0.22328 1.50054,0.28052 0.30465,0.0578 0.91726,0.23463 1.36098,0.39358 0.44373,0.15841 1.07288,0.32735 1.39836,0.37466 0.32545,0.0474 0.72471,0.16038 0.88743,0.25072 0.1627,0.0908 0.82833,0.32971 1.47925,0.53077 1.36381,0.42149 2.67134,0.91489 2.83454,1.0691 0.0615,0.0581 0.42102,0.10602 0.79852,0.10602 h 0.68641 v -6.27176 -6.27175 h -0.81083 c -0.44562,0 -0.96503,-0.052 -1.15378,-0.11496 -1.07383,-0.36 -9.56895,-0.62538 -12.70907,-0.39688"
           stroke="none"
           fill="#4fc6f3"
           fill-rule="evenodd"
           style="stroke-width:0.473054" /></g><path
         style="fill:#ffffff;fill-rule:evenodd;stroke:none;stroke-width:0.131082"
         d="m 181.05517,186.60831 c -0.23529,0.0582 -0.21799,-0.14117 -0.24813,2.86324 -0.041,4.09998 -0.0408,4.1612 0.0191,4.4324 0.66235,2.99694 4.19541,4.07849 6.33048,1.93792 1.81863,-1.82322 1.27477,-4.90051 -1.0615,-6.00684 -0.6659,-0.31526 -0.99177,-0.36245 -2.5118,-0.36336 -1.06845,-9.9e-4 -1.05823,2.7e-4 -1.14487,-0.1164 -0.0448,-0.0603 -0.046,-0.0878 -0.0594,-1.29247 -0.0152,-1.36548 -0.0143,-1.35788 -0.16111,-1.43129 -0.0737,-0.0369 -1.0307,-0.056 -1.16282,-0.0231 m -13.12657,2.48177 c -1.76449,0.25771 -2.78457,1.7991 -2.20454,3.33133 0.35628,0.94104 1.02874,1.24986 2.9487,1.3546 0.92006,0.0502 1.07146,0.0831 1.2614,0.27371 0.32705,0.32835 0.21288,0.97143 -0.20921,1.17776 -0.2518,0.12309 -0.84417,0.20108 -1.35801,0.1788 -0.71597,-0.031 -1.22365,-0.24263 -1.83647,-0.76552 -0.32848,-0.28026 -0.36335,-0.26872 -0.95623,0.31354 -0.59735,0.58673 -0.61832,0.66262 -0.26571,0.9632 1.30676,1.11433 3.51903,1.56263 4.89683,0.99215 1.54887,-0.64111 2.03794,-2.54613 1.0214,-3.97873 -0.35012,-0.49326 -0.58856,-0.574 -1.76751,-0.59826 -1.11604,-0.023 -1.46694,-0.0795 -1.9197,-0.30883 -0.58633,-0.29703 -0.50637,-1.04708 0.14498,-1.35958 0.68622,-0.32942 1.40716,-0.21616 2.38228,0.37411 0.40059,0.2425 0.40793,0.24014 0.88546,-0.29035 0.56168,-0.62382 0.56614,-0.67179 0.091,-0.96398 -0.92583,-0.5689 -2.13126,-0.83748 -3.11464,-0.69395 m -10.19019,0.30778 c -1.99678,0.24094 -3.52939,2.17413 -3.28885,4.14824 0.39049,3.20311 4.18205,4.55234 6.44662,2.29406 0.63522,-0.63339 0.63391,-0.66878 -0.0447,-1.30375 -0.62342,-0.58304 -0.62094,-0.58278 -0.99072,-0.12413 -1.12443,1.39498 -3.48272,0.74664 -3.71893,-1.02244 -0.28956,-2.16757 2.43996,-3.29474 3.78395,-1.56263 0.29008,0.37372 0.32063,0.36481 0.88087,-0.26007 0.52407,-0.58449 0.53049,-0.61215 0.2227,-0.96685 -0.45865,-0.5288 -1.23912,-0.97343 -2.02391,-1.15301 -0.20173,-0.0463 -1.02689,-0.0784 -1.26703,-0.0495 m 4.90064,0.0209 c -0.14852,0.0744 -0.14498,0.0406 -0.16254,1.5929 -0.008,0.76906 -0.0286,2.16993 -0.0447,3.1132 -0.0415,2.44744 -0.0406,2.60316 0.0169,2.68024 0.10749,0.14418 0.13292,0.14904 0.78413,0.14904 0.96267,0 0.89883,0.0977 0.86554,-1.32406 -0.0128,-0.54543 -0.0339,-1.96021 -0.0469,-3.14375 -0.013,-1.18354 -0.0309,-2.33142 -0.0394,-2.55086 l -0.0157,-0.39888 -0.0708,-0.0708 -0.0708,-0.0708 -0.57309,-0.005 c -0.48815,-0.005 -0.58332,-3.9e-4 -0.64256,0.0293 m 13.17362,0.0749 c -1.47062,0.12073 -2.81119,1.23165 -3.22855,2.67513 -0.65306,2.25841 0.92792,4.56664 3.26983,4.77388 0.3302,0.0292 3.66545,0.0295 3.82132,2.5e-4 0.14326,-0.0268 0.21405,-0.0753 0.26739,-0.18246 0.0738,-0.14864 -0.007,-3.83545 -0.094,-4.26319 -0.38236,-1.89007 -2.09324,-3.16326 -4.03601,-3.00361 m 0.73602,1.60379 c 0.78086,0.1417 1.38751,0.6878 1.6329,1.47009 l 0.0601,0.1919 -10e-4,1.12521 c -0.002,1.21605 -0.002,1.223 -0.11837,1.28317 -0.10762,0.0557 -2.26301,0.025 -2.47968,-0.0353 -0.9295,-0.25902 -1.54323,-1.05508 -1.54323,-2.00175 0,-1.29404 1.17029,-2.26536 2.44992,-2.03335 m 8.48285,0.0291 c 1.3086,0.36559 1.9353,1.77407 1.31934,2.96482 -0.77548,1.49879 -3.01134,1.45133 -3.72758,-0.0792 -0.17526,-0.3745 -0.17814,-0.39757 -0.19911,-1.61965 -0.0209,-1.215 -0.0205,-1.22208 0.1105,-1.28867 0.12755,-0.0649 2.25264,-0.0454 2.49685,0.0227"
         id="path0" /><text
         xml:space="preserve"
         style="font-style:normal;font-weight:normal;font-size:6.35px;line-height:125%;font-family:sans-serif;letter-spacing:0px;word-spacing:0px;fill:#ffffff;fill-opacity:1;stroke:none;stroke-width:0.264583px;stroke-linecap:butt;stroke-linejoin:miter;stroke-opacity:1"
         x="150.2926"
         y="204.00378"
         id="text1"><tspan
           id="tspan1"
           style="font-style:normal;font-variant:normal;font-weight:normal;font-stretch:normal;font-size:6.35px;font-family:'Lucida Sans Unicode';-inkscape-font-specification:'Lucida Sans Unicode';fill:#ffffff;stroke-width:0.264583px"
           x="150.2926"
           y="204.00378">zona da mata</tspan></text></g></g></svg>
